<svg xmlns="http://www.w3.org/2000/svg" viewBox="0 0 400 24" fill="none">
  <defs>
    <linearGradient id="fl" gradientUnits="userSpaceOnUse" x1="8" y1="12" x2="186" y2="12">
      <stop offset="0" stop-color="#C49A45" stop-opacity="0"/>
      <stop offset="1" stop-color="#C49A45"/>
    </linearGradient>
    <linearGradient id="fr" gradientUnits="userSpaceOnUse" x1="392" y1="12" x2="214" y2="12">
      <stop offset="0" stop-color="#C49A45" stop-opacity="0"/>
      <stop offset="1" stop-color="#C49A45"/>
    </linearGradient>
  </defs>
  <path d="M8 12h178" stroke="url(#fl)"/>
  <path d="M214 12h178" stroke="url(#fr)"/>
  <g stroke="#C49A45" stroke-linejoin="round">
    <path d="M196 11c-2.2-.3-3.9-1.5-4.8-3.8 2.4.2 4 1.4 4.8 3.8Z"/>
    <path d="M196 13c-2.2.3-3.9 1.5-4.8 3.8 2.4-.2 4-1.4 4.8-3.8Z"/>
    <path d="M204 11c2.2-.3 3.9-1.5 4.8-3.8-2.4.2-4 1.4-4.8 3.8Z"/>
    <path d="M204 13c2.2.3 3.9 1.5 4.8 3.8-2.4-.2-4-1.4-4.8-3.8Z"/>
    <path d="M200 9.8 202.2 12 200 14.2 197.8 12Z"/>
  </g>
</svg>
